<?xml version="1.0" encoding="utf-8"?>
<!-- Generator: Adobe Illustrator 22.1.0, SVG Export Plug-In . SVG Version: 6.00 Build 0)  -->
<svg version="1.1" id="arrow-right" xmlns="http://www.w3.org/2000/svg" xmlns:xlink="http://www.w3.org/1999/xlink" x="0px"
	 y="0px" viewBox="0 0 16 16" enable-background="new 0 0 16 16" xml:space="preserve">
<path id="arrow-right_1_" fill-rule="evenodd" clip-rule="evenodd" fill="#202430" d="M1,9h11.6l-3.3,3.3c-0.4,0.4-0.4,1,0,1.4
	C9.5,13.9,9.7,14,10,14c0.3,0,0.5-0.1,0.7-0.3l5-5c0.1-0.1,0.2-0.2,0.2-0.3c0.1-0.2,0.1-0.5,0-0.8c-0.1-0.1-0.1-0.2-0.2-0.3l-5-5
	c-0.4-0.4-1-0.4-1.4,0c-0.4,0.4-0.4,1,0,1.4L12.6,7H1C0.4,7,0,7.4,0,8S0.4,9,1,9z"/>
</svg>
