<?xml version="1.0" encoding="utf-8"?>
<!-- Generator: Adobe Illustrator 22.1.0, SVG Export Plug-In . SVG Version: 6.00 Build 0)  -->
<svg version="1.1" id="arrow-left" xmlns="http://www.w3.org/2000/svg" xmlns:xlink="http://www.w3.org/1999/xlink" x="0px" y="0px"
	 viewBox="0 0 16 16" enable-background="new 0 0 16 16" xml:space="preserve">
<path id="arrow-left_1_" fill-rule="evenodd" clip-rule="evenodd" fill="#202430" d="M15,7H3.4l3.3-3.3c0.4-0.4,0.4-1,0-1.4
	C6.5,2.1,6.3,2,6,2C5.7,2,5.5,2.1,5.3,2.3l-5,5C0.2,7.4,0.1,7.5,0.1,7.6C0,7.9,0,8.1,0.1,8.4c0.1,0.1,0.1,0.2,0.2,0.3l5,5
	c0.4,0.4,1,0.4,1.4,0c0.4-0.4,0.4-1,0-1.4L3.4,9H15c0.6,0,1-0.4,1-1S15.6,7,15,7z"/>
</svg>
