<?xml version="1.0" encoding="utf-8"?>
<!-- Generator: Adobe Illustrator 22.1.0, SVG Export Plug-In . SVG Version: 6.00 Build 0)  -->
<svg version="1.1" id="lock" xmlns="http://www.w3.org/2000/svg" xmlns:xlink="http://www.w3.org/1999/xlink" x="0px" y="0px"
	 viewBox="0 0 20 20" enable-background="new 0 0 20 20" xml:space="preserve">
<g id="lock_1_">
	<path fill-rule="evenodd" clip-rule="evenodd" fill="#3ABDCC" d="M16,6.2h-1.2V5c0-2.6-2.1-4.8-4.8-4.8C7.4,0.2,5.2,2.4,5.2,5v1.2
		H4C3,6.2,2.2,7,2.2,8v10c0,1,0.8,1.8,1.8,1.8h12c1,0,1.8-0.8,1.8-1.8V8C17.8,7,17,6.2,16,6.2z M6.8,5c0-1.8,1.5-3.2,3.2-3.2
		s3.2,1.5,3.2,3.2v1.2H6.8V5z M16.2,18c0,0.1-0.1,0.2-0.2,0.2H4c-0.1,0-0.2-0.1-0.2-0.2V8c0-0.1,0.1-0.2,0.2-0.2h12
		c0.1,0,0.2,0.1,0.2,0.2V18z"/>
	<path fill-rule="evenodd" clip-rule="evenodd" fill="#3ABDCC" d="M10,10.2c-1.2,0-2.2,1-2.2,2.2c0,1,0.6,1.8,1.5,2.1V15
		c0,0.4,0.3,0.8,0.8,0.8s0.8-0.3,0.8-0.8v-0.4c0.9-0.3,1.5-1.1,1.5-2.1C12.2,11.3,11.2,10.2,10,10.2z"/>
</g>
</svg>
