<?xml version="1.0" encoding="UTF-8"?>
<svg width="187px" height="40px" viewBox="0 0 187 40" version="1.1" xmlns="http://www.w3.org/2000/svg" xmlns:xlink="http://www.w3.org/1999/xlink">
    <title>Group 5</title>
    <g id="Page-1" stroke="none" stroke-width="1" fill="none" fill-rule="evenodd">
        <g id="Landing-oprion2" transform="translate(-153.000000, -30.000000)" fill="#FFFFFF">
            <g id="Group-5" transform="translate(153.000000, 30.000000)">
                <text id="Law-Group.LLC" font-family="CeraPro-Bold, Cera Pro" font-size="20" font-weight="bold" line-spacing="20" letter-spacing="1">
                    <tspan x="68" y="16">LAW</tspan>
                    <tspan x="68" y="36">GROUP.LLC</tspan>
                </text>
                <path d="M47.5,2.4 C52.2,2.4 52.2,2.4 56.025,4.575 C59.85,6.75 59.85,6.75 62.05,10.6 L62.05,10.6 L56.95,14.2 L56.7419983,13.8783304 C53.275,8.65 53.275,8.65 47.5,8.65 C44.45,8.65 44.45,8.65 42.025,10.05 C39.6,11.45 39.6,11.45 38.225,13.925 C36.85,16.4 36.85,16.4 36.85,19.55 C36.85,22.7 36.85,22.7 38.225,25.15 C39.6,27.6 39.6,27.6 42.025,28.975 C44.45,30.35 44.45,30.35 47.5,30.35 C53.45,30.35 53.45,30.35 56.95,24.8 L56.95,24.8 L62.05,28.4 L61.8189751,28.8006233 C59.6973684,32.3644737 59.6973684,32.3644737 56.05,34.425 C52.2,36.6 52.2,36.6 47.45,36.6 C42.6,36.6 42.6,36.6 38.575,34.35 C35.2611445,32.4975342 35.2611445,32.4975342 33.0996387,29.509665 L33.099861,9.53551854 C35.2861238,6.51645255 35.2861238,6.51645255 38.625,4.65 C42.65,2.4 42.65,2.4 47.5,2.4 Z M3,2.4 L16.95,20.25 L30.9,2.4 L33.1,2.4 L33.099861,9.53551854 C32.650594,10.1559228 32.650594,10.1559228 32.25,10.825 C29.9,14.75 29.9,14.75 29.9,19.5 C29.9,24.25 29.9,24.25 32.225,28.175 C32.6357853,28.8684763 32.6357853,28.8684763 33.0996387,29.509665 L33.1,36 L26.35,36 L26.35,18.4 L18.05,28.8 L15.85,28.8 L7.55,18.4 L7.55,36 L0.8,36 L0.8,2.4 L3,2.4 Z" id="Combined-Shape"></path>
            </g>
        </g>
    </g>
</svg>