<?xml version="1.0" encoding="utf-8"?>
<!-- Generator: Adobe Illustrator 22.1.0, SVG Export Plug-In . SVG Version: 6.00 Build 0)  -->
<svg version="1.1" id="tube" xmlns="http://www.w3.org/2000/svg" xmlns:xlink="http://www.w3.org/1999/xlink" x="0px" y="0px"
	 viewBox="0 0 20 20" enable-background="new 0 0 20 20" xml:space="preserve">
<path id="tube_1_" fill="#FFFFFF" d="M19.8,17.5L19.8,17.5L19.8,17.5l-1,1c-1.2,1.3-3.1,1.8-4.8,1.4c-1.7-0.5-3.4-1.2-4.9-2.2
	c-1.4-0.9-2.7-1.9-3.9-3.1c-1.1-1.1-2-2.2-2.9-3.5C1.5,9.6,0.8,8.2,0.2,6.6c-0.6-1.8-0.1-3.8,1.3-5.2l1.1-1.1C3,0,3.5,0,3.8,0.3l0,0
	l3.6,3.6c0.3,0.3,0.3,0.8,0,1.1l0,0L5.2,7.1C4.6,7.7,4.6,8.6,5.1,9.3c0.8,1,1.6,2,2.5,2.9c1,1,2.1,1.9,3.3,2.8
	c0.7,0.5,1.6,0.4,2.2-0.2l2-2c0.3-0.3,0.8-0.3,1.1,0l0,0l3.6,3.6C20.1,16.6,20.1,17.1,19.8,17.5"/>
</svg>
