<?xml version="1.0" encoding="utf-8"?>
<!-- Generator: Adobe Illustrator 22.1.0, SVG Export Plug-In . SVG Version: 6.00 Build 0)  -->
<svg version="1.1" id="Capa_1" xmlns="http://www.w3.org/2000/svg" xmlns:xlink="http://www.w3.org/1999/xlink" x="0px" y="0px"
	 viewBox="0 0 36 36" enable-background="new 0 0 36 36" xml:space="preserve">
<path fill-rule="evenodd" clip-rule="evenodd" fill="#3ABDCC" d="M15,0.3C11.8,0.4,8.9,1.7,6.6,4c-5.9,6.1-5.8,17.7-5.8,18.9l0,12
	c0,0.4,0.3,0.8,0.8,0.8h11.9c0.4,0,0.8-0.3,0.8-0.8V23.1c0-0.4-0.3-0.8-0.8-0.8H7.4c0-1,0.1-9.8,3.9-13.7c1-1.1,2.3-1.6,3.7-1.7
	c0.4,0,0.7-0.4,0.7-0.8V1c0-0.2-0.1-0.4-0.2-0.6C15.4,0.3,15.2,0.2,15,0.3"/>
<path fill-rule="evenodd" clip-rule="evenodd" fill="#3ABDCC" d="M34.9,0.5c-0.2-0.1-0.4-0.2-0.6-0.2C31.1,0.4,28.2,1.7,26,4
	c-5.9,6.1-5.8,17.7-5.8,18.9l0,12c0,0.4,0.3,0.8,0.8,0.8h11.9c0.4,0,0.8-0.3,0.8-0.8V23.1c0-0.4-0.3-0.8-0.8-0.8h-6.1
	c0-1,0.1-9.8,3.9-13.7c1-1.1,2.3-1.6,3.7-1.7c0.4,0,0.7-0.4,0.7-0.8V1C35.2,0.8,35.1,0.6,34.9,0.5"/>
</svg>
